# xmcd CD database file
#
# Track frame offsets:
#	150
#	12930
#	21392
#	31540
#	46445
#	54590
#	63940
#	77520
#	91362
#	100205
#	114020
#	125187
#	135495
#	147235
#	157072
#	174045
#	185612
#	197960
#	207912
#	216107
#	227327
#	237890
#	251290
#	263982
#	275597
#	284615
#	293762
#	304837
#
# Disc length: 4184 seconds
#
# Revision: 0
# Processed by: cddbd v1.4PL0 Copyright (c) Steve Scherf et al.
# Submitted via: CDex 1.50Beta7
#
DISCID=8d10561c
DTITLE=Willie Nelson - Willie Nelson Sings 28 Great Songs!
DYEAR=1988
DGENRE=Country
TTITLE0=Any Old Arms Won't Do
TTITLE1=Slow Down Old World
TTITLE2=Healing Hands Of Time
TTITLE3=And So Will You My Love
TTITLE4=Things To Remember
TTITLE5=One Step Beyond
TTITLE6=Undo The Wrong
TTITLE7=Home Is Where You're Happy
TTITLE8=Why Are You Picking On Me?
TTITLE9=No Tomorrow In Sight
TTITLE10=A New Way To Cry
TTITLE11=Broken Promises
TTITLE12=Happiness Lives Next Door
TTITLE13=Let's Pretend
TTITLE14=I Let My Mind Wander
TTITLE15=December Days
TTITLE16=I Can't Find The Time
TTITLE17=I Didn't Sleep A Wink
TTITLE18=You Wouldn't Cross The Street To Say Goodbye
TTITLE19=Suffering In Silence
TTITLE20=I feel Sorry For Him
TTITLE21=You'll Always Have Someone
TTITLE22=I Just Don't Understand
TTITLE23=I'm Gonna Lose A Lot Of Teardrops
TTITLE24=The Ghost
TTITLE25=Waiting Time
TTITLE26=Go Away
TTITLE27=Right From Wrong
EXTD=YEAR: 1988
EXTT0=
EXTT1=
EXTT2=
EXTT3=
EXTT4=
EXTT5=
EXTT6=
EXTT7=
EXTT8=
EXTT9=
EXTT10=
EXTT11=
EXTT12=
EXTT13=
EXTT14=
EXTT15=
EXTT16=
EXTT17=
EXTT18=
EXTT19=
EXTT20=
EXTT21=
EXTT22=
EXTT23=
EXTT24=
EXTT25=
EXTT26=
EXTT27=
PLAYORDER=
